<svg id="Layer_1" xmlns="http://www.w3.org/2000/svg" viewBox="0 0 388.15 196.15"><path d="m137.87,154.75l-7.75,24.03-8.14-24.03h-8.4l11.17,30.61h2.52l-.39,1.16c-.71,2.2-2.45,3.55-5.43,3.55-2.58,0-4.26-.39-5.88-.9v4.97c1.36,1.16,3.23,2,7.04,2,6.14,0,9.43-3.1,11.88-10.14l10.98-31.26h-7.62Z"/><path d="m89.1,175.67v-15.37h9.37v-5.56h-9.37v-8.65h-4.84c-1.29,6.72-2.13,9.43-7.56,9.82v4.39h4.26v16.79c0,7.62,5.04,9.82,10.08,9.82,4.26,0,6.59-1.49,7.62-2.97v-3.88c-1.42.52-2.84.9-4.59.9-3.36,0-4.97-1.29-4.97-5.3Z"/><path d="m66.24,161.66c-1.81-4.78-4.71-7.62-10.46-7.62-7.1,0-12.92,5.49-12.92,15.95v.07c0,9.88,4.78,16.79,12.53,16.79,5.94,0,8.98-3.49,10.53-7.94.06,4.13,1.55,7.17,1.55,7.17h6.46v-31.32h-5.94s-1.42,3.23-1.74,6.91Zm-.45,9.43c0,6.2-3.55,9.95-7.69,9.95-4.46,0-6.91-3.88-6.91-9.95v-2.19c0-6.14,2.78-8.98,6.98-8.98s7.62,2.97,7.62,10.01v1.16Z"/><rect x="181.32" y="142.6" width="8.07" height="43.47"/><path d="m168.54,161.66c-1.81-4.78-4.71-7.62-10.46-7.62-7.11,0-12.92,5.49-12.92,15.95v.07c0,9.88,4.78,16.79,12.53,16.79,5.94,0,8.98-3.49,10.53-7.94.07,4.13,1.55,7.17,1.55,7.17h6.46v-31.32h-5.94s-1.42,3.23-1.74,6.91Zm-.45,9.43c0,6.2-3.55,9.95-7.69,9.95-4.46,0-6.91-3.88-6.91-9.95v-2.19c0-6.14,2.78-8.98,6.97-8.98s7.62,2.97,7.62,10.01v1.16Z"/><path d="m208.38,153.97c-8.85,0-15.24,6.33-15.24,16.34v.07c0,10.59,6.13,16.4,16.34,16.4,5.88,0,9.95-1.94,11.3-3.81v-4.52c-1.87,1.03-5.3,2.13-9.43,2.13-6.14,0-9.56-1.94-9.88-8.46h19.76c.45-1.36.78-2.97.78-4.97,0-7.3-4.26-13.18-13.63-13.18Zm6.26,14.01h-13.18c.19-5.75,2.91-8.65,7.04-8.65,3.75,0,6.14,2.39,6.14,8.01v.64Z"/><path d="m282.76,106.61c-5.62,0-9.75,3.36-10.98,8.85v-.65c0-4.07-1.55-7.43-1.55-7.43h-6.52v31.32h8.2v-16.92c0-5.75,3.23-8.91,7.56-8.91,3.49,0,5.23,1.61,5.23,5.17v20.67h8.14v-21.06c0-7.43-3.94-11.04-10.08-11.04Z"/><path d="m128.44,139.55c4.26,0,6.59-1.49,7.62-2.97v-3.87c-1.42.52-2.84.9-4.59.9-3.36,0-4.97-1.29-4.97-5.3v-15.37h9.36v-5.55h-9.36v-8.66h-4.85c-1.29,6.72-2.13,9.43-7.56,9.82v4.39h4.26v16.79c0,7.62,5.04,9.82,10.08,9.82Z"/><rect x="173.19" y="107.38" width="8.2" height="31.32"/><path d="m177.25,94.73c-2.58,0-4.65,2.07-4.65,4.65s2.07,4.59,4.65,4.59,4.71-2,4.71-4.59-2.07-4.65-4.71-4.65Z"/><path d="m254.55,94.73c-2.58,0-4.65,2.07-4.65,4.65s2.07,4.59,4.65,4.59,4.71-2,4.71-4.59-2.07-4.65-4.71-4.65Z"/><path d="m215.55,138.71v-21.06c0-7.43-3.94-11.04-10.08-11.04-5.62,0-9.75,3.36-10.98,8.85v-.65c0-4.07-1.55-7.43-1.55-7.43h-6.52v31.32h8.2v-16.92c0-5.75,3.23-8.91,7.56-8.91,3.49,0,5.23,1.61,5.23,5.17v20.67h8.14Z"/><path d="m168.48,138.71v-21.06c0-7.43-3.94-11.04-10.08-11.04-5.42,0-9.62,3.16-10.85,8.59v-19.96h-8.2v43.47h8.2v-16.92c0-5.75,3.23-8.91,7.56-8.91,3.49,0,5.23,1.61,5.23,5.17v20.67h8.14Z"/><path d="m320.15,113.84c-1.74-4.78-4.91-7.17-10.85-7.17-7.56,0-13.24,5.75-13.24,14.98v.07c0,9.17,4.65,15.05,12.92,15.05,5.88,0,9.43-2.78,10.66-6.78v3.29c0,5.81-3.55,8.98-10.01,8.98-6.01,0-9.04-1.68-10.92-3.23v5.88c1.49,1.74,4.85,3.81,12.27,3.81,10.72,0,16.86-5.81,16.86-16.08v-25.25h-5.94s-1.29,2.91-1.74,6.46Zm-.52,8.66c0,5.94-3.68,9.17-8.07,9.17-4.71,0-7.17-3.36-7.17-9.17v-1.55c0-5.43,2.91-8.4,7.3-8.4s7.94,3.04,7.94,9.11v.84Z"/><rect x="250.48" y="107.38" width="8.2" height="31.32"/><polygon points="247.96 107.38 239.7 107.38 228.2 121.53 228.2 95.24 220 95.24 220 138.71 228.2 138.71 228.2 122.95 239.12 138.71 248.29 138.71 236.02 121.53 247.96 107.38"/><path d="m169.76,60.02h-6.52v31.32h8.2v-16.92c0-5.75,3.23-8.91,7.56-8.91,3.49,0,5.23,1.61,5.23,5.17v20.67h8.14v-21.05c0-7.43-3.94-11.04-10.08-11.04-5.62,0-9.75,3.36-10.98,8.85v-.65c0-4.07-1.55-7.43-1.55-7.43Z"/><path d="m137.73,67.45c0-4.07-1.55-7.43-1.55-7.43h-6.52v31.32h8.2v-16.92c0-5.75,3.23-8.91,7.56-8.91,3.49,0,5.23,1.61,5.23,5.17v20.67h8.14v-21.05c0-7.43-3.94-11.04-10.08-11.04-5.62,0-9.75,3.36-10.98,8.85v-.65Z"/><polygon points="247.58 91.34 258.3 60.02 250.61 60.02 242.99 84.95 234.73 60.02 226.26 60.02 237.37 91.34 247.58 91.34"/><rect x="317.31" y="60.02" width="8.2" height="31.32"/><path d="m321.38,47.36c-2.58,0-4.65,2.07-4.65,4.65s2.07,4.59,4.65,4.59,4.71-2,4.71-4.59-2.07-4.65-4.71-4.65Z"/><path d="m388.15,72.42c0-7.3-4.26-13.17-13.63-13.17-8.85,0-15.24,6.33-15.24,16.34v.06c0,10.59,6.14,16.41,16.34,16.41,5.88,0,9.95-1.94,11.3-3.81v-4.52c-1.87,1.03-5.3,2.13-9.43,2.13-6.13,0-9.56-1.94-9.88-8.46h19.76c.45-1.36.78-2.97.78-4.97Zm-7.36.84h-13.18c.19-5.75,2.91-8.65,7.04-8.65,3.75,0,6.14,2.39,6.14,8.01v.65Z"/><path d="m226.98,75.26v-.13c0-9.95-6.59-15.89-15.76-15.89s-15.69,5.94-15.69,15.95v.13c0,11.69,7.49,16.73,15.69,16.73s15.76-5.04,15.76-16.79Zm-8.33.97c0,7.88-3.23,10.46-7.43,10.46s-7.36-2.58-7.36-10.46v-2.32c0-5.94,2.91-9.17,7.36-9.17s7.43,3.23,7.43,9.17v2.32Z"/><polygon points="352.31 60.02 344.69 84.95 336.43 60.02 327.96 60.02 339.07 91.34 349.28 91.34 360 60.02 352.31 60.02"/><path d="m120.5,47.36c-2.58,0-4.65,2.07-4.65,4.65s2.07,4.59,4.65,4.59,4.71-2,4.71-4.59-2.07-4.65-4.71-4.65Z"/><path d="m281.03,84.18c.07,4.13,1.55,7.17,1.55,7.17h6.46v-31.32h-5.94s-1.42,3.23-1.74,6.91c-1.81-4.78-4.71-7.62-10.46-7.62-7.11,0-12.92,5.49-12.92,15.95v.06c0,9.88,4.78,16.79,12.53,16.79,5.94,0,8.98-3.49,10.53-7.94Zm-14.72-7.81v-2.2c0-6.14,2.78-8.98,6.97-8.98s7.62,2.97,7.62,10.01v1.16c0,6.2-3.55,9.94-7.68,9.94-4.46,0-6.91-3.87-6.91-9.94Z"/><rect x="116.43" y="60.02" width="8.2" height="31.32"/><path d="m306.15,92.18c4.26,0,6.59-1.49,7.62-2.97v-3.87c-1.42.52-2.84.9-4.59.9-3.36,0-4.97-1.29-4.97-5.3v-15.37h9.37v-5.55h-9.37v-8.66h-4.84c-1.29,6.72-2.13,9.43-7.56,9.82v4.39h4.26v16.79c0,7.62,5.04,9.82,10.08,9.82Z"/><path d="m268.44,31.13c0-8.78,4.07-11.63,11.43-11.43v-6.01c-.52-.84-1.29-1.49-2.97-1.49-3.49,0-7.23,2.45-8.59,10.33v-1.74c0-4.52-1.55-8.14-1.55-8.14h-6.52v31.32h8.2v-12.85Z"/><path d="m326.57,44.69c8.27,0,15.76-5.04,15.76-16.79v-.13c0-9.95-6.59-15.89-15.76-15.89s-15.69,5.94-15.69,15.95v.13c0,11.69,7.49,16.73,15.69,16.73Zm-7.36-18.15c0-5.94,2.91-9.17,7.36-9.17s7.43,3.23,7.43,9.17v2.33c0,7.88-3.23,10.46-7.43,10.46s-7.36-2.58-7.36-10.46v-2.33Z"/><path d="m294.41,43.98h8.2v-25.77h8.14v-5.55h-8.14v-2.58c0-3.1,1.23-4.33,4.85-4.33,1.16,0,2.52.13,3.29.26V1.81c-1.03-.97-3.04-1.74-6.26-1.74-4.78,0-10.08,2.78-10.08,10.53v2.07h-4.26v5.55h4.26v25.77Z"/><path d="m354.01,31.13c0-8.78,4.07-11.63,11.43-11.43v-6.01c-.52-.84-1.29-1.49-2.97-1.49-3.49,0-7.23,2.45-8.59,10.33v-1.74c0-4.52-1.55-8.14-1.55-8.14h-6.52v31.32h8.2v-12.85Z"/><path d="m12.4,33.58v-15.37h9.36v-5.55h-9.36V4h-4.85c-1.29,6.72-2.13,9.43-7.56,9.82v4.39h4.26v16.79c0,7.62,5.04,9.82,10.08,9.82,4.26,0,6.59-1.49,7.62-2.97v-3.87c-1.42.52-2.84.9-4.59.9-3.36,0-4.97-1.29-4.97-5.3Z"/><path d="m49.6,34.36c0-3.75-1.23-6.07-4.2-7.62-2.97-1.68-7.62-1.55-10.79-2.71-1.49-.58-1.94-1.42-1.94-2.71,0-2.58,2.39-3.62,5.81-3.62,3.88,0,7.04,1.03,9.3,2.13v-5.23c-1.87-1.61-5.49-2.71-9.69-2.71-6.52,0-12.53,2.84-12.53,10.14,0,3.75,1.29,6.26,4.39,7.88,3.17,1.61,7.94,1.68,10.14,2.52,1.42.58,2,1.55,2,2.84,0,2.58-1.87,3.75-6.2,3.75s-7.75-1.16-10.4-2.84v5.23c2.26,2,5.94,3.42,11.37,3.42,7.49,0,12.72-3.49,12.72-10.46Z"/><path d="m128.71,44.76c5.75,0,9.23-1.94,10.66-3.87v-4.65c-1.94,1.1-5.23,2.52-8.98,2.52-5.81,0-8.85-3.1-8.85-9.88v-1.81c0-6.26,3.75-8.72,8.4-8.72,4.26,0,6.91.84,8.98,2.2v-5.49c-1.49-1.81-4.46-3.16-10.33-3.16-7.69,0-15.31,5.3-15.31,16.27v.07c0,10.14,6.2,16.53,15.44,16.53Z"/><path d="m83.89,43.98V12.66h-5.94s-1.42,3.23-1.74,6.91c-1.81-4.78-4.71-7.62-10.46-7.62-7.11,0-12.92,5.49-12.92,15.95v.06c0,9.88,4.78,16.79,12.53,16.79,5.94,0,8.98-3.49,10.53-7.94.07,4.13,1.55,7.17,1.55,7.17h6.46Zm-8.14-14.98c0,6.2-3.55,9.95-7.69,9.95-4.46,0-6.91-3.88-6.91-9.95v-2.2c0-6.14,2.78-8.98,6.97-8.98s7.62,2.97,7.62,10.01v1.16Z"/><rect x="88.98" y="12.66" width="8.2" height="31.32"/><path d="m181.78,27.06c0-5.75,3.23-8.91,7.56-8.91,3.49,0,5.23,1.61,5.23,5.17v20.67h8.14v-21.06c0-7.43-3.94-11.04-10.08-11.04-5.62,0-9.75,3.36-10.98,8.85v-.65c0-4.07-1.55-7.43-1.55-7.43h-6.52v31.32h8.2v-16.92Z"/><path d="m244.42,44.69c5.88,0,9.95-1.94,11.3-3.81v-4.52c-1.87,1.03-5.3,2.13-9.43,2.13-6.13,0-9.56-1.94-9.88-8.46h19.76c.45-1.36.78-2.97.78-4.97,0-7.3-4.26-13.17-13.63-13.17-8.85,0-15.24,6.33-15.24,16.34v.06c0,10.59,6.14,16.41,16.34,16.41Zm-.97-27.45c3.75,0,6.14,2.39,6.14,8.01v.65h-13.18c.19-5.75,2.91-8.65,7.04-8.65Z"/><path d="m209.03,35c0,7.62,5.04,9.82,10.08,9.82,4.26,0,6.59-1.49,7.62-2.97v-3.87c-1.42.52-2.84.9-4.59.9-3.36,0-4.97-1.29-4.97-5.3v-15.37h9.37v-5.55h-9.37V4h-4.84c-1.29,6.72-2.13,9.43-7.56,9.82v4.39h4.26v16.79Z"/><path d="m93.05,9.23c2.65,0,4.71-2,4.71-4.59s-2.07-4.65-4.71-4.65-4.65,2.07-4.65,4.65,2.07,4.59,4.65,4.59Z"/><path d="m157.76,44.69c5.88,0,9.95-1.94,11.3-3.81v-4.52c-1.87,1.03-5.3,2.13-9.43,2.13-6.14,0-9.56-1.94-9.88-8.46h19.76c.45-1.36.78-2.97.78-4.97,0-7.3-4.26-13.17-13.63-13.17-8.85,0-15.24,6.33-15.24,16.34v.06c0,10.59,6.14,16.41,16.34,16.41Zm-.97-27.45c3.75,0,6.14,2.39,6.14,8.01v.65h-13.18c.19-5.75,2.91-8.65,7.04-8.65Z"/></svg>